A mature Queen Elizabeth endures multiple crises late in her reign including court intrigues, an assassination plot, the Spanish Armada, and romantic disappointments.
 
http://www.imdb.com/title/tt0414055/

Subs (srt): Bulgarian, Danish, Dutch, English, Estonian, Finnish, French, Hungarian, Norwegian, Romanian, Slowakian, Spanish and Swedish.

Het verhaal van de kruistocht van een vrouw om liefde, het verslaan van vijanden en het behouden van haar positie in de de westelijke wereld. Wanneer de katholieke Mary Stuart, de nicht van de protestantse koningin Elizabeth I, een band schept met Phillip van Spanje voor een hogere positie op de troon, is het Sir Francis Walsingham die de koningin tegen Mary Stuart moet beschermen in een machtsstrijd om de Engelse troon. Elizabeth moet sterk in haar schoenen staan en zelfs bereid zijn een oorlog te beginnen. En terwijl iedereen van haar verwacht dat ze trouwt met een geschikte partij om zo de opvolging veilig te stellen, wordt ze heimelijk verliefd op de avonturier, ontdekker en piraat Walter Raleigh.
 
http://www.moviemeter.nl/film/39369

Ondertitels (srt): Bulgaars, Deens, Engels, Estlands, Fins, Frans, Hongaars, Nederlands, Noors, Roemeens, Slowaaks, Spaans en Zweeds.

General
Complete name                    : Elizabeth-The Golden Age-Multisubs-BRRip 2007 TBS\Elizabeth-The Golden Age-Multisubs-BRRip 2007.avi
Format                           : AVI
Format/Info                      : Audio Video Interleave
File size                        : 1.46 GiB
Duration                         : 1h 54mn
Overall bit rate                 : 1 821 Kbps
Writing application              : VirtualDubMod 1.5.4.1 (build 2178/release)
Writing library                  : VirtualDubMod build 2178/release
Source                           : Elizabeth.The.Golden.Age.2007.Blu-ray.Re.x264.720p.DTS-HDS

Video
ID                               : 0
Format                           : MPEG-4 Visual
Format profile                   : Simple@L3
Format settings, BVOP            : No
Format settings, QPel            : No
Format settings, GMC             : No warppoints
Format settings, Matrix          : Default (H.263)
Codec ID                         : XVID
Codec ID/Hint                    : XviD
Duration                         : 1h 54mn
Bit rate                         : 1 364 Kbps
Width                            : 720 pixels
Height                           : 400 pixels
Display aspect ratio             : 16:9
Frame rate                       : 23.976 fps
Resolution                       : 8 bits
Colorimetry                      : 4:2:0
Scan type                        : Progressive
Bits/(Pixel*Frame)               : 0.198
Stream size                      : 1.09 GiB (75%)
Writing library                  : XviD 1.1.2 (UTC 2006-11-01)

Audio
ID                               : 1
Format                           : AC-3
Format/Info                      : Audio Coding 3
Codec ID                         : 2000
Duration                         : 1h 54mn
Bit rate mode                    : Constant
Bit rate                         : 448 Kbps
Channel(s)                       : 6 channels
Channel positions                : Front: L C R, Surround: L R, LFE
Sampling rate                    : 48.0 KHz
Stream size                      : 368 MiB (25%)
Alignment                        : Split accross interleaves
Interleave, duration             : 42 ms (1.00 video frame)
Interleave, preload duration     : 500 ms

Blackbeard  TBS.

Enjoy..